<svg xmlns="http://www.w3.org/2000/svg" xmlns:xlink="http://www.w3.org/1999/xlink" version="1.1" id="Calque_1" x="0px" y="0px" width="100px" height="100px" viewBox="0 0 100 100" enable-background="new 0 0 100 100" xml:space="preserve">
<path d="M40.928,40.364c5.245,0,9.512-4.268,9.512-9.513c0-5.246-4.267-9.514-9.512-9.514c-5.246,0-9.514,4.268-9.514,9.514  C31.414,36.097,35.682,40.364,40.928,40.364z M40.928,22.838c4.418,0,8.012,3.595,8.012,8.014c0,4.418-3.594,8.013-8.012,8.013  c-4.419,0-8.014-3.595-8.014-8.013C32.914,26.433,36.509,22.838,40.928,22.838z"/>
<path d="M35.805,29.959c0-0.189-0.08-0.39-0.22-0.53c-0.28-0.279-0.78-0.279-1.06,0c-0.141,0.141-0.221,0.33-0.221,0.53  s0.08,0.4,0.221,0.53c0.14,0.14,0.33,0.22,0.529,0.22c0.2,0,0.391-0.08,0.53-0.22S35.805,30.159,35.805,29.959z"/>
<path d="M35.501,28.321c0.125,0.078,0.263,0.115,0.399,0.115c0.249,0,0.493-0.124,0.636-0.35c0.957-1.519,2.599-2.425,4.392-2.425  c0.414,0,0.75-0.336,0.75-0.75s-0.336-0.75-0.75-0.75c-2.312,0-4.428,1.168-5.661,3.124C35.046,27.637,35.151,28.101,35.501,28.321z  "/>
<path d="M82.802,33.283h-8.71v-3.757c0-0.03-0.014-0.056-0.017-0.084c0.004-0.057,0.017-0.111,0.017-0.169  c0-1.289-1.048-2.337-2.337-2.337H60.07v-2.433c0-0.414-0.336-0.75-0.75-0.75s-0.75,0.336-0.75,0.75v2.561  c-0.929,0.308-1.604,1.174-1.604,2.204s0.676,1.897,1.604,2.205v6.291c0,0.005,0.003,0.009,0.003,0.014  c-0.93,0.307-1.607,1.174-1.607,2.205c0,1.03,0.676,1.896,1.604,2.204v15.34c-0.865-0.083-1.521-0.323-1.895-0.721  c-0.57-0.604-0.672-1.728-0.649-2.196c0.005-0.053,0.014-0.132,0.004-11.682V32.406c0-8.468-6.814-15.357-15.19-15.357  c-6.112,0-11.387,3.6-13.856,8.781v-8.477c1.008-0.29,1.751-1.21,1.751-2.31c0-1.067-0.701-1.965-1.664-2.283v-1.603  c0-0.414-0.336-0.75-0.75-0.75s-0.75,0.336-0.75,0.75v1.603c-0.963,0.318-1.664,1.216-1.664,2.283c0,1.036,0.659,1.914,1.577,2.256  v15.106v9.721v6.787v4.204v12.013v1.188c0,2.024,1.647,3.672,3.672,3.672c0.855,0,1.634-0.307,2.259-0.799v14.979  c0,0.089,0.022,0.171,0.051,0.25h-0.998c-1.776,0-3.221,1.444-3.221,3.22v2.196c0,0.414,0.336,0.75,0.75,0.75h7.216h2.881  c0.414,0,0.75-0.336,0.75-0.75v-2.196V68.646c0-1.08,0.946-1.993,2.066-1.993c1.112,0,2.052,0.913,2.052,1.993v18.995v1.943v0.253  c0,0.414,0.336,0.75,0.75,0.75h2.882h7.215c0.414,0,0.75-0.336,0.75-0.75v-2.196c0-1.775-1.444-3.22-3.221-3.22h-1.199  c0.028-0.079,0.051-0.161,0.051-0.25l-0.001-23.93c0.306,0.507,0.667,1.008,1.107,1.486c0.861,0.937,2.225,1.983,4.236,2.598  c0.021,0.008,0.035,0.023,0.057,0.029c0.033,0.01,0.066,0.009,0.1,0.014c0.843,0.244,1.802,0.405,2.883,0.456v22.731  c0,0.414,0.336,0.75,0.75,0.75s0.75-0.336,0.75-0.75V64.762c0,0-0.001-0.002-0.001-0.004c1.616-0.373,2.828-1.817,2.828-3.546  c0-1.728-1.212-3.171-2.827-3.545V42.315h4.117v2.508c0,2.125,1.729,3.854,3.854,3.854h14.76c0.414,0,0.75-0.336,0.75-0.75V34.033  C83.552,33.619,83.216,33.283,82.802,33.283z M26.32,14.13c0.504,0,0.914,0.41,0.914,0.914s-0.41,0.914-0.914,0.914  s-0.914-0.41-0.914-0.914S25.816,14.13,26.32,14.13z M66.523,33.283c-0.461,0-0.836-0.375-0.836-0.837s0.375-0.837,0.836-0.837  h5.231c0.296,0,0.576-0.061,0.837-0.161v1.835H66.523z M61.397,31.602v6.05H60.07v-6.05H61.397z M40.84,18.549  c7.549,0,13.69,6.217,13.69,13.857v8.971H26.983v-8.971C26.983,24.766,33.199,18.549,40.84,18.549z M48.697,44.498h-15.87v-1.621  h15.87V44.498z M26.983,49.664h1.422v2.704h-1.422V49.664z M26.983,53.868h2.172c0.414,0,0.75-0.336,0.75-0.75v-4.204  c0-0.414-0.336-0.75-0.75-0.75h-2.172v-5.287h4.344v21.504h-4.344V53.868z M32.914,72.755c1.038,0.229,1.818,1.153,1.818,2.259  s-0.78,2.029-1.818,2.258V72.755z M29.155,68.49c-1.197,0-2.172-0.975-2.172-2.172v-0.438h4.344v0.438  C31.327,67.516,30.353,68.49,29.155,68.49z M32.914,84.171v-1.313h4.179c0.089,0,0.171-0.022,0.25-0.051v2.121  c-0.499-0.317-1.086-0.508-1.72-0.508h-2.76C32.892,84.342,32.914,84.26,32.914,84.171z M30.467,85.921h5.156  c0.679,0,1.261,0.397,1.54,0.97h-1.951h-6.286C29.205,86.318,29.788,85.921,30.467,85.921z M28.746,88.391h5.716v0.696h-5.716  V88.391z M35.962,88.391h1.381v0.696h-1.381V88.391z M40.909,65.152c-1.934,0-3.566,1.6-3.566,3.493v12.764  c-0.079-0.028-0.161-0.051-0.25-0.051h-4.179v-2.58c1.867-0.247,3.318-1.831,3.318-3.765s-1.451-3.52-3.318-3.766v-7.31h0.621  c-0.028,0.079-0.051,0.161-0.051,0.25v0.573c0,0.414,0.336,0.75,0.75,0.75s0.75-0.336,0.75-0.75v-0.573  c0-0.089-0.022-0.171-0.051-0.25h1.028c-0.028,0.079-0.051,0.161-0.051,0.25v0.573c0,0.414,0.336,0.75,0.75,0.75  s0.75-0.336,0.75-0.75v-0.573c0-0.089-0.022-0.171-0.051-0.25h6.564c-0.028,0.079-0.051,0.161-0.051,0.25v0.573  c0,0.414,0.336,0.75,0.75,0.75s0.75-0.336,0.75-0.75v-0.573c0-0.089-0.022-0.171-0.051-0.25h1.22  c-0.028,0.079-0.051,0.161-0.051,0.25v0.573c0,0.414,0.336,0.75,0.75,0.75s0.75-0.336,0.75-0.75v-0.573  c0-0.089-0.022-0.171-0.051-0.25h0.497c0.088,0,0.17-0.022,0.249-0.05v7.369c-1.82,0.288-3.221,1.855-3.221,3.756  s1.4,3.467,3.222,3.755v2.59h-4.228V68.646C44.461,66.72,42.867,65.152,40.909,65.152z M48.688,77.241  c-0.988-0.264-1.722-1.157-1.722-2.228s0.733-1.965,1.721-2.229L48.688,77.241z M44.461,88.391h1.382v0.696h-1.382V88.391z   M53.058,89.087h-5.715v-0.696h5.715V89.087z M52.878,86.891h-6.285h-1.952c0.279-0.572,0.862-0.97,1.541-0.97h5.155  C52.016,85.921,52.599,86.318,52.878,86.891z M46.182,84.421c-0.634,0-1.222,0.19-1.721,0.508v-2.07h4.228v1.313  c0,0.089,0.022,0.171,0.051,0.25H46.182z M48.688,62.488c-0.079-0.027-0.161-0.05-0.249-0.05H32.914v-16.44h15.772v8.601  c0,0.045,0,0.091,0,0.14L48.688,62.488z M50.197,54.213V42.877h4.333v0.053l0,0c0,0.001,0,0.001,0,0.001  c0.001,1.024,0.002,2.593,0.003,4.247h-2.223c-0.414,0-0.75,0.336-0.75,0.75s0.336,0.75,0.75,0.75h2.224c0,0.282,0,0.561,0,0.838  h-2.224c-0.414,0-0.75,0.336-0.75,0.75s0.336,0.75,0.75,0.75h2.224c0.001,1.893,0,3.359-0.003,3.479  c-0.018,0.353-0.051,2.17,1.053,3.342c0.244,0.259,0.552,0.463,0.889,0.641l-1.183,4.175c-1.332-0.527-2.271-1.266-2.892-1.939  C50.107,58.222,50.162,54.895,50.197,54.213z M61.397,61.212c0,1.184-0.963,2.146-2.146,2.146c-0.945,0-1.782-0.1-2.528-0.263  l1.175-4.15c0.212,0.037,0.44,0.058,0.672,0.076v1.845c0,0.414,0.336,0.75,0.75,0.75s0.75-0.336,0.75-0.75V59.23  C60.848,59.553,61.397,60.319,61.397,61.212z M64.188,32.446c0,0.049,0.002,0.097,0.004,0.144c-0.002,0.027-0.004,0.055-0.004,0.082  v8.144h-4.89c-0.459,0-0.832-0.373-0.832-0.832s0.373-0.832,0.832-0.832h2.85c0.414,0,0.75-0.336,0.75-0.75v-7.55  c0-0.414-0.336-0.75-0.75-0.75h-2.85c-0.459,0-0.832-0.374-0.832-0.833s0.373-0.832,0.832-0.832h12.457  c0.462,0,0.837,0.375,0.837,0.837c0,0.461-0.375,0.836-0.837,0.836h-5.231C65.235,30.109,64.188,31.157,64.188,32.446z   M82.052,47.178h-14.01c-1.298,0-2.354-1.057-2.354-2.354V34.629c0.26,0.1,0.542,0.154,0.836,0.154h15.528V47.178z"/>
<path d="M44.202,49.241c-0.18,0-0.352,0.028-0.52,0.069c-0.777-0.734-1.784-1.146-2.86-1.146c-1.089,0-2.108,0.419-2.891,1.17  c-0.19-0.055-0.387-0.093-0.595-0.093c-1.205,0-2.186,0.98-2.186,2.186c0,0.96,0.626,1.769,1.488,2.062v3.944  c0,2.307,1.876,4.184,4.183,4.184s4.183-1.877,4.183-4.184v-3.978c0.808-0.321,1.382-1.107,1.382-2.028  C46.387,50.222,45.406,49.241,44.202,49.241z M44.887,51.427c0,0.378-0.307,0.686-0.685,0.686s-0.686-0.308-0.686-0.686  s0.308-0.686,0.686-0.686S44.887,51.049,44.887,51.427z M37.337,50.741c0.378,0,0.686,0.308,0.686,0.686s-0.308,0.686-0.686,0.686  s-0.686-0.308-0.686-0.686S36.959,50.741,37.337,50.741z M40.822,60.116c-1.479,0-2.683-1.204-2.683-2.684v-3.978  c0.809-0.321,1.383-1.107,1.383-2.028c0-0.434-0.131-0.836-0.35-1.177c0.927-0.713,2.279-0.734,3.228-0.057  c-0.241,0.352-0.384,0.775-0.384,1.233c0,0.96,0.626,1.769,1.488,2.062v3.944C43.505,58.912,42.302,60.116,40.822,60.116z"/>
<path d="M40.822,55.06c-1.205,0-2.186,0.98-2.186,2.187c0,1.205,0.98,2.186,2.186,2.186s2.186-0.98,2.186-2.186  C43.008,56.04,42.027,55.06,40.822,55.06z M40.822,57.932c-0.378,0-0.686-0.308-0.686-0.686c0-0.379,0.308-0.687,0.686-0.687  s0.686,0.308,0.686,0.687C41.508,57.624,41.2,57.932,40.822,57.932z"/>
<circle cx="29.155" cy="59.979" r="0.603"/>
<circle cx="29.155" cy="45.248" r="0.603"/>
<circle cx="52.311" cy="45.248" r="0.603"/>
</svg>